# AST/ASF file generated using VICON BodyLanguage
# -----------------------------------------------
:version 1.10
:name VICON
:units
  mass 1.0
  length 0.45
  angle deg
:documentation
   .ast/.asf automatically generated from VICON data using
   VICON BodyBuilder and BodyLanguage model FoxedUp or BRILLIANT.MOD
:root
   order TX TY TZ RX RY RZ
   axis XYZ
   position 0 0 0  
   orientation 0 0 0 
:bonedata
  begin
     id 1 
     name lhipjoint
     direction 0.577973 -0.728611 0.367523 
     length 2.48544 
     axis 0 0 0  XYZ
  end
  begin
     id 2 
     name lfemur
     direction 0.34202 -0.939693 0  
     length 7.1921  
     axis 0 0 20  XYZ
    dof rx ry rz
    limits (-160.0 20.0)
           (-70.0 70.0)
           (-60.0 70.0)
  end
  begin
     id 3 
     name ltibia
     direction 0.34202 -0.939693 0   
     length 7.71059   
     axis 0 0 20   XYZ
    dof rx
    limits (-10.0 170.0)
  end
  begin
     id 4 
     name lfoot
     direction 0.089538 -0.246004 0.965124   
     length 2.19909   
     axis -90 7.62852e-016 20   XYZ
    dof rx rz
    limits (-45.0 90.0)
           (-70.0 20.0)
  end
  begin
     id 5 
     name ltoes
     direction 1.53544e-011 -4.21829e-011 1   
     length 1.10116   
     axis -90 7.62852e-016 20   XYZ
    dof rx
    limits (-90.0 20.0)
  end
  begin
     id 6 
     name rhipjoint
     direction -0.554414 -0.743062 0.374812   
     length 2.4371  
     axis 0 0 0  XYZ 
  end
  begin
     id 7 
     name rfemur
     direction -0.34202 -0.939693 0   
     length 7.47254   
     axis 0 0 -20   XYZ
    dof rx ry rz
    limits (-160.0 20.0)
           (-70.0 70.0)
           (-70.0 60.0)
  end
  begin
     id 8 
     name rtibia
     direction -0.34202 -0.939693 0   
     length 7.65855   
     axis 0 0 -20   XYZ
    dof rx
    limits (-10.0 170.0)
 end
 begin
     id 9 
     name rfoot
     direction -0.133779 -0.367555 0.92033   
     length 2.43006  
     axis -90 -7.62852e-016 -20   XYZ
    dof rx rz
    limits (-45.0 90.0)
           (-20.0 70.0)
  end
  begin
     id 10 
     name rtoes
     direction -1.53563e-011 -4.21889e-011 1   
     length 1.19625   
     axis -90 -7.62852e-016 -20   XYZ
    dof rx
    limits (-90.0 20.0)
  end
  begin
     id 11 
     name lowerback
     direction 0.0249066 0.998043 -0.0573585   
     length 2.08485   
     axis 0 0 0   XYZ
    dof rx ry rz
    limits (-20.0 45.0)
           (-30.0 30.0)
           (-30.0 30.0)
  end
  begin
     id 12 
     name upperback
     direction 0.0237884 0.999673 0.00943178   
     length 2.08515   
     axis 0 0 0   XYZ
    dof rx ry rz
    limits (-20.0 45.0)
           (-30.0 30.0)
           (-30.0 30.0)
  end
  begin
     id 13 
     name thorax
     direction 0.0106671 0.999301 0.0358174   
     length 2.09037   
     axis 0 0 0   XYZ
    dof rx ry rz
    limits (-20.0 45.0)
           (-30.0 30.0)
           (-30.0 30.0)
  end
  begin
     id 14 
     name lowerneck
     direction -0.0580016 0.987052 0.149546   
     length 1.84454   
     axis 0 0 0   XYZ
    dof rx ry rz
    limits (-20.0 45.0)
           (-30.0 30.0)
           (-30.0 30.0)
  end
  begin
     id 15 
     name upperneck
     direction 0.079456 0.981963 -0.171567   
     length 1.88141   
     axis 0 0 0   XYZ
    dof rx ry rz
    limits (-20.0 45.0)
           (-30.0 30.0)
           (-30.0 30.0)
  end
  begin
     id 16
     name head
     direction 0.0262167 0.9967 -0.0768276  
     length 1.89541  
     axis 0 0 0   XYZ
    dof rx ry rz
    limits (-20.0 45.0)
           (-30.0 30.0)
           (-30.0 30.0)
  end
  begin
     id 17 
     name lclavicle
     direction 0.946135 0.322134 -0.0325326  
     length 3.949  
     axis 0 0 0   XYZ
    dof ry rz
    limits (-20.0 10.0)
           (0.0 20.0)
  end
  begin
     id 18 
     name lhumerus
     direction 1 -4.48964e-011 1.94005e-028   
     length 5.10995   
     axis 180 -30 -90   XYZ
    dof rx ry rz
    limits (-60.0 90.0)
           (-90.0 90.0)
           (-90.0 90.0)
  end
  begin
     id 19
     name lradius
     direction 1 -4.48976e-011 2.87852e-027   
     length 3.21207   
     axis 180 -30 -90   XYZ
    dof rx
    limits (-10.0 170.0)
  end
  begin
     id 20
     name lwrist
     direction 1 -4.48963e-011 1.9975e-027   
     length 1.60604   
     axis 2.96054e-016 90 90   XYZ
    dof ry
    limits (-180.0 0.0)
 end
  begin
     id 21 
     name lhand
     direction 1 -4.48919e-011 4.00227e-027   
     length 0.63349   
     axis -2.5488e-015 90 90   XYZ
    dof rx rz
    limits (-90.0 90.0)
           (-45.0 45.0)
  end
  begin
     id 22 
     name lfingers
     direction 1 -4.49037e-011 7.9652e-027   
     length 0.510736   
     axis -5.0975e-015 90 90   XYZ
    dof rx
    limits (0.0 90.0)
  end
  begin
     id 23
     name lthumb
     direction 0.707107 -6.34922e-011 0.707107   
     length 0.733318   
     axis -90 45 -4.48553e-014   XYZ
    dof rx rz
    limits (-45.0 45.0)
           (-45.0 45.0)
  end
  begin
     id 24 
     name rclavicle
     direction -0.940085 0.328911 -0.0897654   
     length 3.93848  
     axis 0 0 0   XYZ 
    dof ry rz
    limits (-10.0 20.0)
           (-20.0 0.0)
  end
  begin
     id 25 
     name rhumerus
     direction -1 -4.48958e-011 3.02044e-027  
     length 5.25109   
     axis 180 30 90   XYZ
    dof rx ry rz
    limits (-90.0 60.0)
           (-90.0 90.0)
           (-90.0 90.0)
  end
  begin
     id 26 
     name rradius
     direction -1 -4.4897e-011 9.78352e-028   
     length 3.28364   
     axis 180 30 90   XYZ
    dof rx
    limits (-10.0 170.0)
  end
  begin
     id 27 
     name rwrist
     direction -1 -4.48943e-011 1.99918e-027   
     length 1.64182   
     axis 2.96054e-016 -90 -90   XYZ
    dof ry
    limits (-180.0 0.0)
  end
  begin
     id 28
     name rhand
     direction -1 -4.49024e-011 3.98478e-027   
     length 0.599745   
     axis -2.5488e-015 -90 -90   XYZ
    dof rx rz
    limits (-90.0 90.0)
           (-45.0 45.0)
  end
  begin
     id 29
     name rfingers
     direction -1 -4.48914e-011 8.00621e-027   
     length 0.48353   
     axis -5.0975e-015 -90 -90   XYZ
    dof rx
    limits (0.0 90.0)
  end
  begin
     id 30
     name rthumb
     direction -0.707107 -6.34992e-011 0.707107   
     length 0.694255   
     axis -90 -45 4.48553e-014   XYZ
    dof rx rz
    limits (-45.0 45.0)
           (-45.0 45.0)
  end
:hierarchy
  begin
    root lhipjoint rhipjoint lowerback
    lhipjoint lfemur
    lfemur ltibia
    ltibia lfoot
    lfoot ltoes
    rhipjoint rfemur
    rfemur rtibia
    rtibia rfoot
    rfoot rtoes
    lowerback upperback
    upperback thorax
    thorax lowerneck lclavicle rclavicle
    lowerneck upperneck
    upperneck head
    lclavicle lhumerus
    lhumerus lradius
    lradius lwrist
    lwrist lhand lthumb
    lhand lfingers
    rclavicle rhumerus
    rhumerus rradius
    rradius rwrist
    rwrist rhand rthumb
    rhand rfingers
  end

#!OML:ASF E:\CV Data\Top Level 1\Subject 1\Session 1\player.ASF
:FULLY-SPECIFIED
:DEGREES
161
root 9.74019 16.8583 -5.34202 49.6106 -84.8144 -47.9299
lowerback 8.26365 1.66975 5.42501
upperback 0.878381 2.73873 2.2392
thorax -3.57588 1.26677 -1.02217
lowerneck -15.9508 11.1917 -3.20517
upperneck 22.5226 15.7476 2.31562
head 9.24774 7.25739 3.19767
rclavicle 2.48481e-015 2.5842e-014
rhumerus -34.4473 38.4087 -101.175
rradius 90.4431
rwrist -13.0004
rhand -34.1073 15.1859
rfingers 7.12502
rthumb -7.28311 -14.6688
lclavicle 2.48481e-015 2.5842e-014
lhumerus -33.9553 -35.3531 106.912
lradius 93.9421
lwrist 44.8048
lhand -27.5863 39.6487
lfingers 7.12502
lthumb -0.986324 69.6262
rfemur -25.0029 4.83502 28.167
rtibia 47.09
rfoot -21.6503 -10.1268
rtoes 12.2386
lfemur -25.8626 3.71404 -10.1384
ltibia 47.0467
lfoot -20.0354 3.2135
ltoes -7.37257
162
root 9.79944 16.8595 -5.35073 47.7687 -84.6657 -45.948
lowerback 8.46511 1.64301 5.47678
upperback 0.961356 2.71634 2.25258
thorax -3.60136 1.25422 -1.04019
lowerneck -15.9231 11.1619 -3.18248
upperneck 22.4432 15.7243 2.19582
head 9.22949 7.23789 3.14775
rclavicle -2.38542e-015 1.31198e-014
rhumerus -34.0318 38.4807 -100.889
rradius 90.7056
rwrist -12.9563
rhand -34.4458 15.3992
rfingers 7.12502
rthumb -7.60986 -14.4439
lclavicle -2.38542e-015 1.31198e-014
lhumerus -33.3903 -35.4385 106.739
lradius 94.1307
lwrist 44.5037
lhand -27.6398 39.5659
lfingers 7.12502
lthumb -1.03801 69.5431
rfemur -25.4132 4.68353 28.1358
rtibia 47.1137
rfoot -21.4262 -10.1728
rtoes 12.2821
lfemur -26.2324 3.85414 -10.2203
ltibia 47.4711
lfoot -20.6133 3.40257
ltoes -8.09127
163
root 9.85881 16.861 -5.35946 46.1364 -84.5413 -44.1912
lowerback 8.65493 1.62579 5.49655
upperback 1.04795 2.70282 2.26943
thorax -3.61764 1.24685 -1.03722
lowerneck -15.8732 11.1349 -3.14424
upperneck 22.366 15.7035 2.0612
head 9.21065 7.2191 3.08984
rclavicle -1.95803e-014 -1.03368e-014
rhumerus -33.6266 38.5807 -100.599
rradius 90.9579
rwrist -12.8289
rhand -34.8136 15.5865
rfingers 7.12502
rthumb -7.96491 -14.2434
lclavicle -1.95803e-014 -1.03368e-014
lhumerus -32.8506 -35.5248 106.589
lradius 94.3159
lwrist 44.1698
lhand -27.7001 39.4953
lfingers 7.12502
lthumb -1.09628 69.4722
rfemur -25.8021 4.54249 28.0923
rtibia 47.1302
rfoot -21.1953 -10.2033
rtoes 12.3109
lfemur -26.53 4.0641 -10.3328
ltibia 47.9651
lfoot -21.1094 3.63848
ltoes -8.58572
164
root 9.91813 16.8624 -5.36819 44.6845 -84.436 -42.6286
lowerback 8.83019 1.62075 5.50183
upperback 1.13441 2.70303 2.28211
thorax -3.62552 1.24674 -1.03147
lowerneck -15.8282 11.1075 -3.06666
upperneck 22.3274 15.6738 1.92494
head 9.20985 7.19715 3.02754
rclavicle -1.27222e-014 -1.90833e-014
rhumerus -33.232 38.6864 -100.31
rradius 91.1962
rwrist -12.6179
rhand -35.2058 15.7294
rfingers 7.12502
rthumb -8.34339 -14.0858
lclavicle -1.27222e-014 -1.90833e-014
lhumerus -32.3442 -35.6407 106.434
lradius 94.5143
lwrist 43.8405
lhand -27.7611 39.3796
lfingers 7.12502
lthumb -1.15516 69.3562
rfemur -26.1558 4.41278 28.0419
rtibia 47.1015
rfoot -20.9371 -10.2192
rtoes 12.3285
lfemur -26.737 4.34622 -10.4708
ltibia 48.4987
lfoot -21.4842 3.91626
ltoes -8.87473
165
root 9.97718 16.8641 -5.37651 43.3397 -84.339 -41.1856
lowerback 8.98368 1.61852 5.49894
upperback 1.22093 2.70458 2.29477
thorax -3.6214 1.24774 -1.02058
lowerneck -15.7649 11.0786 -2.99967
upperneck 22.2947 15.6387 1.81046
head 9.20481 7.17441 2.972
rclavicle -6.95746e-015 -4.77083e-015
rhumerus -32.8479 38.8111 -100.026
rradius 91.4171
rwrist -12.3573
rhand -35.6063 15.8364
rfingers 7.12502
rthumb -8.72989 -13.9631
lclavicle -6.95746e-015 -4.77083e-015
lhumerus -31.8707 -35.7657 106.288
lradius 94.7117
lwrist 43.4865
lhand -27.7976 39.2703
lfingers 7.12502
lthumb -1.19045 69.2467
rfemur -26.4887 4.28106 27.9873
rtibia 47.0622
rfoot -20.6675 -10.223
rtoes 12.2951
lfemur -26.8681 4.66423 -10.6212
ltibia 49.1117
lfoot -21.7589 4.18988
ltoes -8.83806
166
root 10.0355 16.8779 -5.38602 42.2402 -84.2627 -40.0042
lowerback 9.11899 1.62584 5.48584
upperback 1.30637 2.71654 2.30678
thorax -3.60809 1.25428 -1.00525
lowerneck -15.6825 11.0463 -2.95181
upperneck 22.2705 15.5947 1.72993
head 9.19456 7.14997 2.92799
rclavicle 5.66536e-015 -7.95139e-015
rhumerus -32.4787 38.9478 -99.7538
rradius 91.6249
rwrist -12.0907
rhand -36.0058 15.9234
rfingers 7.12502
rthumb -9.11541 -13.8596
lclavicle 5.66536e-015 -7.95139e-015
lhumerus -31.4346 -35.9046 106.135
lradius 94.9229
lwrist 43.1359
lhand -27.8468 39.1764
lfingers 7.12502
lthumb -1.23791 69.1526
rfemur -26.7553 4.16677 27.9355
rtibia 46.9725
rfoot -20.3923 -10.2114
rtoes 12.2436
lfemur -26.8689 5.02935 -10.775
ltibia 49.7587
lfoot -21.9372 4.46053
ltoes -8.66204
167
root 10.0933 16.88 -5.3945 41.3859 -84.1989 -39.0804
lowerback 9.23429 1.64026 5.47473
upperback 1.38885 2.73675 2.31753
thorax -3.58606 1.26509 -0.992655
lowerneck -15.6044 11.011 -2.9003
upperneck 22.2737 15.5408 1.67397
head 9.19277 7.12281 2.89196
rclavicle -5.26779e-015 -7.95139e-016
rhumerus -32.1221 39.088 -99.4961
rradius 91.8235
rwrist -11.8571
rhand -36.3835 15.9945
rfingers 7.12502
rthumb -9.47985 -13.7723
lclavicle -5.26779e-015 -7.95139e-016
lhumerus -31.0319 -36.0667 105.962
lradius 95.1505
lwrist 42.8071
lhand -27.9081 39.0986
lfingers 7.12502
lthumb -1.29717 69.0744
rfemur -27.0342 4.0664 27.8935
rtibia 46.9025
rfoot -20.1025 -10.1881
rtoes 12.1436
lfemur -26.825 5.43215 -10.9151
ltibia 50.5143
lfoot -22.0261 4.68795
ltoes -8.44336
168
root 10.1503 16.8825 -5.40275 40.7142 -84.1516 -38.3562
lowerback 9.33405 1.65871 5.45796
upperback 1.46854 2.76083 2.32989
thorax -3.5584 1.27802 -0.975242
lowerneck -15.5217 10.9735 -2.87292
upperneck 22.2935 15.4816 1.65324
head 9.1906 7.09473 2.87038
rclavicle 9.93923e-016 7.95139e-016
rhumerus -31.7827 39.2375 -99.2522
rradius 92.0179
rwrist -11.6853
rhand -36.7238 16.0621
rfingers 7.12502
rthumb -9.80816 -13.6895
lclavicle 9.93923e-016 7.95139e-016
lhumerus -30.6676 -36.2089 105.825
lradius 95.3609
lwrist 42.4444
lhand -27.9349 39.0352
lfingers 7.12502
lthumb -1.32303 69.0108
rfemur -27.2802 3.97626 27.8552
rtibia 46.8127
rfoot -19.8101 -10.1469
rtoes 12.0524
lfemur -26.6881 5.855 -11.0431
ltibia 51.3276
lfoot -22.0327 4.84924
ltoes -8.22007
169
root 10.2068 16.8855 -5.41074 40.1809 -84.11 -37.7809
lowerback 9.41828 1.67598 5.44174
upperback 1.54176 2.78274 2.34419
thorax -3.52905 1.28987 -0.955456
lowerneck -15.4406 10.9357 -2.86736
upperneck 22.3331 15.4207 1.6632
head 9.19086 7.06682 2.86249
rclavicle -8.24956e-015 8.74653e-015
rhumerus -31.4625 39.3934 -99.0257
rradius 92.2094
rwrist -11.5858
rhand -37.0199 16.1518
rfingers 7.12502
rthumb -10.0938 -13.5861
lclavicle -8.24956e-015 8.74653e-015
lhumerus -30.3577 -36.3377 105.736
lradius 95.558
lwrist 42.0509
lhand -27.9975 38.971
lfingers 7.12502
lthumb -1.38349 68.9462
rfemur -27.5168 3.89163 27.8241
rtibia 46.739
rfoot -19.5386 -10.0918
rtoes 11.9996
lfemur -26.4803 6.26165 -11.15
ltibia 52.2196
lfoot -21.9863 4.94543
ltoes -8.01618
170
root 10.2627 16.8891 -5.41775 39.7505 -84.0669 -37.3133
lowerback 9.4818 1.68915 5.43728
upperback 1.60617 2.79951 2.35935
thorax -3.49713 1.29905 -0.940171
lowerneck -15.3841 10.9012 -2.84699
upperneck 22.4138 15.3615 1.68127
head 9.2103 7.0395 2.85916
rclavicle -1.66979e-014 1.59028e-015
rhumerus -31.1634 39.548 -98.8137
rradius 92.402
rwrist -11.5453
rhand -37.2642 16.2623
rfingers 7.12502
rthumb -10.3295 -13.464
lclavicle -1.66979e-014 1.59028e-015
lhumerus -30.0963 -36.4521 105.666
lradius 95.7576
lwrist 41.6373
lhand -28.0112 38.9211
lfingers 7.12502
lthumb -1.3967 68.8963
rfemur -27.7351 3.807 27.7984
rtibia 46.643
rfoot -19.2716 -10.02
rtoes 12.033
lfemur -26.1975 6.64945 -11.2346
ltibia 53.1426
lfoot -21.865 4.94809
ltoes -7.8376
171
root 10.3185 16.8936 -5.42373 39.3585 -84.0105 -36.8837
lowerback 9.52808 1.68889 5.44186
upperback 1.65897 2.79913 2.38305
thorax -3.46867 1.29946 -0.918679
lowerneck -15.3499 10.8733 -2.83276
upperneck 22.5304 15.3143 1.70306
head 9.24515 7.01564 2.86253
rclavicle -4.37326e-015 -3.18055e-015
rhumerus -30.8888 39.7142 -98.6153
rradius 92.5956
rwrist -11.5351
rhand -37.4373 16.3704
rfingers 7.12502
rthumb -10.4965 -13.3475
lclavicle -4.37326e-015 -3.18055e-015
lhumerus -29.8886 -36.5256 105.65
lradius 95.941
lwrist 41.1754
lhand -28.0394 38.8753
lfingers 7.12502
lthumb -1.42397 68.8503
rfemur -27.9415 3.71152 27.7809
rtibia 46.5246
rfoot -19.0071 -9.93992
rtoes 12.1257
lfemur -25.85 6.98921 -11.2906
ltibia 54.0819
lfoot -21.657 4.84609
ltoes -7.63232
172
root 10.3742 16.8992 -5.4288 38.9258 -83.9418 -36.4032
lowerback 9.55029 1.67508 5.45275
upperback 1.6971 2.78086 2.40854
thorax -3.4429 1.29085 -0.896166
lowerneck -15.3433 10.8555 -2.81256
upperneck 22.6831 15.2824 1.72431
head 9.29783 6.99721 2.87034
rclavicle 3.73715e-014 3.33958e-014
rhumerus -30.6416 39.8803 -98.4382
rradius 92.7898
rwrist -11.5265
rhand -37.5471 16.4708
rfingers 7.12502
rthumb -10.6024 -13.2418
lclavicle 3.73715e-014 3.33958e-014
lhumerus -29.7326 -36.5695 105.637
lradius 96.141
lwrist 40.7023
lhand -28.0615 38.8677
lfingers 7.12502
lthumb -1.44527 68.8425
rfemur -28.1479 3.60374 27.761
rtibia 46.3862
rfoot -18.7502 -9.84924
rtoes 12.3125
lfemur -25.4475 7.26983 -11.328
ltibia 55.0213
lfoot -21.3503 4.63849
ltoes -7.34778
173
root 10.4299 16.9058 -5.43271 38.3504 -83.8545 -35.7699
lowerback 9.54993 1.64585 5.46926
upperback 1.72193 2.74209 2.43213
thorax -3.41919 1.27201 -0.875842
lowerneck -15.3535 10.8452 -2.78505
upperneck 22.8509 15.2626 1.73684
head 9.36008 6.98299 2.87762
rclavicle 5.46658e-014 1.98785e-014
rhumerus -30.42 40.036 -98.282
rradius 92.9852
rwrist -11.481
rhand -37.5758 16.5267
rfingers 7.12502
rthumb -10.6301 -13.1844
lclavicle 5.46658e-014 1.98785e-014
lhumerus -29.6272 -36.5964 105.622
lradius 96.3565
lwrist 40.2245
lhand -28.0516 38.8479
lfingers 7.12502
lthumb -1.4357 68.8228
rfemur -28.3565 3.47369 27.7322
rtibia 46.2313
rfoot -18.4877 -9.75941
rtoes 12.4972
lfemur -24.9954 7.48624 -11.3546
ltibia 55.9446
lfoot -20.9323 4.32678
ltoes -6.95746
174
root 10.4855 16.9133 -5.43603 37.7003 -83.7617 -35.0555
lowerback 9.5365 1.60403 5.48108
upperback 1.73537 2.68621 2.45777
thorax -3.40134 1.24458 -0.848564
lowerneck -15.3712 10.8425 -2.77843
upperneck 23.0134 15.2587 1.75039
head 9.41977 6.97474 2.89013
rclavicle 3.22031e-014 1.35174e-014
rhumerus -30.2313 40.1975 -98.1459
rradius 93.1858
rwrist -11.3926
rhand -37.5545 16.5511
rfingers 7.12502
rthumb -10.6096 -13.161
lclavicle 3.22031e-014 1.35174e-014
lhumerus -29.575 -36.6 105.612
lradius 96.5897
lwrist 39.7485
lhand -28.0039 38.8336
lfingers 7.12502
lthumb -1.38972 68.8088
rfemur -28.5648 3.34109 27.693
rtibia 46.0654
rfoot -18.228 -9.6716
rtoes 12.7228
lfemur -24.4853 7.66561 -11.376
ltibia 56.8365
lfoot -20.4088 3.96125
ltoes -6.63657
175
root 10.5413 16.9215 -5.43919 36.9472 -83.6688 -34.2267
lowerback 9.50371 1.5567 5.46874
upperback 1.73799 2.62025 2.48454
thorax -3.38571 1.21243 -0.8051
lowerneck -15.3956 10.8485 -2.76202
upperneck 23.166 15.2693 1.74569
head 9.47945 6.97222 2.89701
rclavicle -1.75924e-014 -1.74931e-014
rhumerus -30.077 40.3536 -98.0295
rradius 93.3903
rwrist -11.2582
rhand -37.5135 16.5928
rfingers 7.12502
rthumb -10.57 -13.1214
lclavicle -1.75924e-014 -1.74931e-014
lhumerus -29.5676 -36.6006 105.578
lradius 96.8597
lwrist 39.311
lhand -27.9653 38.7739
lfingers 7.12502
lthumb -1.35241 68.7494
rfemur -28.781 3.20856 27.638
rtibia 45.8931
rfoot -17.9571 -9.59518
rtoes 12.8754
lfemur -23.9229 7.81409 -11.3954
ltibia 57.6818
lfoot -19.8104 3.51752
ltoes -6.30031
